<svg xmlns="http://www.w3.org/2000/svg" width="1200" height="630" viewBox="0 0 1200 630" role="img" aria-labelledby="title desc">
  <title id="title">ABS Replays Analysis</title>
  <desc id="desc">OG image for ABS Replays Analysis with analytics chart and tank silhouette.</desc>
  <defs>
    <linearGradient id="bg" x1="0" y1="0" x2="1" y2="1">
      <stop offset="0%" stop-color="#0A1022"/>
      <stop offset="100%" stop-color="#152D5A"/>
    </linearGradient>
    <linearGradient id="accent" x1="0" y1="0" x2="1" y2="0">
      <stop offset="0%" stop-color="#36E0FF"/>
      <stop offset="100%" stop-color="#74F6C8"/>
    </linearGradient>
  </defs>
  <rect width="1200" height="630" fill="url(#bg)"/>
  <g opacity="0.16" stroke="#7DB8FF" stroke-width="1">
    <path d="M0 90H1200M0 180H1200M0 270H1200M0 360H1200M0 450H1200M0 540H1200"/>
    <path d="M120 0V630M240 0V630M360 0V630M480 0V630M600 0V630M720 0V630M840 0V630M960 0V630M1080 0V630"/>
  </g>
  <g transform="translate(120 140)">
    <rect x="0" y="260" width="320" height="26" rx="13" fill="#0E1A36"/>
    <circle cx="70" cy="273" r="24" fill="#36E0FF"/>
    <circle cx="160" cy="273" r="24" fill="#36E0FF"/>
    <circle cx="250" cy="273" r="24" fill="#36E0FF"/>
    <path d="M20 220h220l44-52h70l18 20h46v32h-30l-20 24H20z" fill="#EAF5FF"/>
    <rect x="160" y="188" width="120" height="10" rx="5" fill="#74F6C8"/>
  </g>
  <g transform="translate(560 170)">
    <text x="0" y="80" fill="#FFFFFF" font-family="Inter, Arial, sans-serif" font-size="62" font-weight="800">ABS Replays Analysis</text>
    <text x="0" y="130" fill="#A7C4F5" font-family="Inter, Arial, sans-serif" font-size="30" font-weight="500">WGSRT and Team Performance Metrics</text>
    <path d="M0 250l90-50 86 26 80-90 84 40 90-70 96 56" fill="none" stroke="url(#accent)" stroke-width="10" stroke-linecap="round" stroke-linejoin="round"/>
    <circle cx="90" cy="200" r="8" fill="#36E0FF"/>
    <circle cx="176" cy="226" r="8" fill="#36E0FF"/>
    <circle cx="256" cy="136" r="8" fill="#36E0FF"/>
    <circle cx="340" cy="176" r="8" fill="#36E0FF"/>
    <circle cx="430" cy="106" r="8" fill="#36E0FF"/>
    <circle cx="526" cy="162" r="8" fill="#36E0FF"/>
  </g>
</svg>
